<svg xmlns="http://www.w3.org/2000/svg" viewBox="0 0 1856 576" width="220" height="68">
  <path fill="#fff" d="M661 167h2l8 1c0 25 0 25-7 32q-6 2-14 2l-10 1-1 7-1 4-2 15h22l3 1-2 23v2l-4 5-5 1h-18l-3 9h19l4 1q3 5 2 11l-1 3-1 9v3l-7 41v4l-4 22v3l-2 15v3l-4 7-9 1h-7l-4-3-1-9 1-4 1-3 2-15 1-10 2-13 4-27 2-8h-3v2l-8 51v3l-3 22-3 11q-7 4-16 2h-3c-9 0-9 0-11-2l2-20v-4l2-13 1-3 7-49-2 1-1 4v3l-1 2v3l-9 60-1 4v3q-1 6-5 10l-9 1h-45l-11-1h-3q-3 0-5-2v-5l1-3 2-15v-3l4-24 1-3 3-15 2-12v-4l2-12h-7a18 18 0 0 1-13-6l-3-9v-2l-2-17-4-1-1 3-12 20-1 2-10 10-6 1-8 2-1 8-1 2-2 13-7 40-2 15-1 3c-2 12-2 12-5 15h-54q-3 1-5-2l-2-9v-10l-1-11v-3l-1-24-3-1-7 18q-1 3-4 5h-87l-7-1q-1-9 1-19v-4q1-4 4-6h16l17-1h36l7-1 1-4 5-10q15-26 18-56l7-40 2-12v-2l1-4q0-6 4-11l5-1h2l3 1h3q7-1 12 3l-3 20v3l-4 16-7 47v17l1 11v17l1 9v13l3 24q8 2 16-2 3-5 3-10v-2l1-7 6-37v-2l7-38 4-22q0-8 4-14l5-1h5l1-9q0-4 4-6h22q3 0 5 2l2 8v6h26l6-2 2-5q0-4 3-8c8-1 20-3 27 1l-1 13 7 2v16l-1 3-3 20-4 21v2l-3 22-2 13-4 21v3l-1 3-1 4-1 9h29l1-10 8-51 2-10v-4l1-3 1-7v-6q1-4 5-7h21v-9h-15l-3-1h-3l-4-2 1-12v-3c2-11 2-11 5-14l6-1h18l1-7 1-2 2-13-2 1h-21l-3-1 1-17 1-3v-4q2-4 6-5l11-1h3l27-2 11-1h2l2-1q2 1 5-3 5-4 13-2m-201 89c-5 4-5 4-8 9v5q4 3 8 1 5-4 5-11-1-3-5-4m50 3q-3 3-1 7l3 5q4 0 7-3l1-6-5-5q-3 0-5 2m406-92h21l5 1 1 4v4l-1 3v2l-1 6h4l27 1h3c6 0 6 0 8 2l-1 8v2c-2 15-2 15-5 18h-5l-3 1h-28l-5 1-1 6-1 3v13l30 1h9q4 5 1 12v2l-1 6v6q-2 13-12 22l-9 10-1 2-12 13-9 11-3 5 2 4 2 2 1 2 2 3 14 20 1 2 6 8q6 6 13 7h233l163 1h6q2 3 2 7l-2 4-10 1H937c-12 1-12 1-17-3l-6-8-2-3-2-3-6-9-2-5q-7 4-12 11l-6 6-4 5q-5 8-13 9h-27l-8-2q-3-9 0-20v-2l2-8 6-1h5c8 0 8 0 14-4l3-4 3-4 2-2 5-5 1-1 4-4 2-6q0-4-3-7l-13-19-6-11-2-3-2-2v-6l30-1h2q6-1 10 3l4 7 2 1 1 2 1 2 3 5 10-10 2-3 1-1 7-8 2-3 2-2h-71l-8-2c1-21 1-21 3-27q5-3 12-2l29-1 3-9v-2l1-3v-2l1-7-34-1h-8q-2 1-4-3l1-8v-2c2-14 2-14 5-17h12l29-1 3-1 1-9q0-11 11-11"/>
  <path fill="#fff" d="M187 167h34l1 2 1 2 1 3 1 2 1 2q2 5 6 6l14 1h28q7 1 12-3l3-4q5-8 14-11h28l2 2q0 4-3 7l-4 3q-3 2-2 5v2h9q3 7 1 14l-1 3v6l-4 5h-18l-15 1h-29l-3 11-1 3-3 18v2l-1 16h27l4-16 1-3 1-8v-7l4-7h17c10 0 10 0 13 2l-6 39-3 20-5 8-6 1h-49l-5 1-2 10-2 12-3 29c-1 6-1 6-3 8q-5 2-11 1h-78l-8-1q-2-4-1-10l4-17 20-1h40l5-2 1-5 1-3v-3l1-3 1-15q-3-2-6-1h-24l-20-1h-7l-3-1 2-21v-4l5-27v-3l1-3v-3l4-7h27q2 3 2 8l-2 6-3 19-1 8h25q4 1 7-2l2-8v-3l3-20 3-17h-2l-55-1h-4l-3-1c-1-8-1-20 4-27l7-1h7l-3-11-1-3-1-2q1-3 6-2"/>
  <path fill="#fff" d="M157 227q1 9-2 18v2l-3 15-9 46-6 39v16h209l9 1 2 6v2l-1 3v2q1 9-4 15H140l-7-1h-17l-3 1H93l-4-2q-2-6 0-12l1-3q1-9 10-14l2-1 2-9 1-7 1-5 3-19 4-23 4-25 1-5 1-3v-6l-5-5q-4-2-3-5v-12c1-8 1-8 3-10h8l3-1h20c10 0 10 0 12 2m660-60h18l6 2-1 18v3l-1 6h7l5 4-1 9v2c-1 12-1 12-4 16l-12 3-5 29-2 18 3-2 4-2 2-1 2-1 2-1h6l-2 22v7q-1 4-6 7l-6 2q-6 3-10 8l-3 15-1 16-4 30-1 4v4q0 6-4 7h-34l-10-2-1-7v-2l1-3v-2l3-16 9-1h6v-2l3-24-2 1-6 4-3 1-2 1-2 1h-5q-2-7 0-15l1-6v-4l1-4a14 14 0 0 1 7-8l4-1q7-3 12-8 5-14 5-29l1-10 2-19 1-8h-15q-2 0-5-3v-7l1-2c1-16 1-16 3-19l6-1h14v-2l2-9v-6l1-3q1-10 10-10m-71 0h12l11 1-1 18-1 5-1 3-2 14v3l-8 60-5 30h3l9-1 1 4-1 15-1 2c-1 8-1 8-4 11l-5 1-3 1h-2l-3 16-4 27-1 3v6l-4 6h-17c-10 0-10 0-12-2q-2-17 3-32l3-19-4 1-41 5-4 1h-10q-3-2-2-5v-7c2-17 2-17 6-21l5-1h4l3-1h4l31-4h4l3-1 5-1 8-54 2-11 5-36v-2l3-22v-3l1-3v-3q4-6 10-4M461 301h41l4 2-1 7v2l-1 7v2l-3 16v2l-6 30-1 10q-1 6-5 9l-10 1h-33l-5-2 2-21 7-42 2-10v-3l1-3v-3q2-5 8-4m11 26-4 10v2l-2 11v17l9-1 3-9v-2l2-11c3-10 3-10 1-19q-5-3-9 2m18-162h29q3 5 2 11l8 1h5l23 1q3 2 2 5l-1 10v3q0 6-5 10l-11 1h-4l-18-1h-83v-15l1-3v-5q1-4 4-5h9l9-1h11l5-1 2-6c2-6 7-5 12-5m962 216h290l4 2q1 4-2 9h-298q-3-3-2-7l1-3zm-417-124h3l4 2 1 8v7l1 4v59l1 11v10q1 4-2 7-4 3-9 2l-3-2-1-9v-8h-16l-1 6-5 12q-4 2-9 1l-2-2q1-9 4-17l1-3 8-28 13-44 1-2c4-14 4-14 11-14m-5 31-6 21-3 11-1 3v9h9q5-8 3-18v-2l1-23zm749 7h10l5 1q2 4 1 9v2l-1 4-1 10-6 64v3l-5 5h-20l-4-2v-8l2-3 8-1h8l2-12h-10q-5 0-8-2-3-5-2-10v-2l2-35 1-5v-3l4-14q7-2 14-1m-6 13-2 8v6l-1 6-1 25q4 2 7 1h2q3-5 3-10l1-14 1-21q-4-3-10-1m-569-52h8l16 1q2 5 1 9 0 4-4 5h-7l-3 1h-9l-1 12-1 3v3l-1 3v7q6 2 13 2h3q2 4 2 9-2 4-5 6l-8 1h-7l-2 10v3l-1 19 19 1 1 7v3l-2 5-21 1-3-1h-8v-17l3-27 6-49v-6l1-3v-3q3-6 10-5m202 39h11l5 2q3 5 2 11v3l-1 8v3l-3 22v3c-1 14-1 14-5 19l-20 1v2l-1 9v9l-4 6h-7q-2-2-2-5v-6l3-29 4-46c2-13 6-12 18-12m-5 14-2 10v2l-2 17-1 2v12l4 3 6-1q4-5 4-12v-2l1-11 1-20q-2-3-5-2-4 0-6 2m202-52q3 6 2 12l-3 26h15q4 0 5 3 1 19-2 36l-1 16v4c-1 9-1 9-3 12l-6 1-3-2 2-31 1-26h-7l-3 9v7l-3 28v10l-4 5-7-1-1-9 1-3 2-27v-3l4-55v-2l3-10zm-246 37h12l11 1q3 4 2 10v2l-3 28-2 16v3q0 6-4 12-7 2-14 1h-14q-3 1-5-2l-1-7 1-4 4-43 1-3c1-9 2-14 12-14m0 16q-3 12-3 25l-1 10-1 3 1 6q5 2 9 1l4-5v-6l1-3v-3c3-15 3-15 1-30q-6-4-11 2m-280-15h15l5 1q2 5 1 9v2l-3 30-2 10v7l-1 3v5q-1 4-5 5c-6 0-6 0-8-2q-1-14 2-28c2-13 2-13 2-27l-4-1q-4-1-6 2l-2 7v3l-1 3v3l-3 25v9l-4 6h-7q-3-2-3-6v-3l1-3v-4l1-7v-2l3-28 1-9 3-9q7-2 15-1"/>
  <path fill="#fff" d="m681 243 11-1h4l5 3 1 3 1 2 1 2 1 2 2 4 6 9q4 4 3 9l-1 6v3l-3 10h-23q-3 0-5-2l-3-7-6-10q-7-8-7-18l-1-4-1-9c4-4 10-2 15-2m843 52h16l6 2q1 13-1 25v3c-1 10-1 10-4 13h-19v15h8l3-9q5-2 9 1 1 11-4 21-6 2-13 1h-9q-4 0-7-5v-11l1-13 2-14v-8l1-5v-3q0-12 11-13m1 13-2 10v7h11l1-12v-4q-5-3-10-1M680 180h28l1 3 2 3 1 3 8 13a12 12 0 0 1 4 10c0 13 0 13-4 18q-6 2-12 1h-9q-4 0-6-3l-3-6-6-10a48 48 0 0 1-8-31zm558 115h23q3 0 5 2 3 4 2 9v2l-1 7-2 21-2 19v3l-1 2-2 6-7 1-3-3v-8l3-26 1-21h-9l-3 12v6l-3 28v2l-1 3-2 6-7 1-3-2q-1-12 1-24l3-30 1-3v-6q1-7 7-7m446 0h10q3 0 5 2 2 5 1 11l-1 13v2l-1 17-1 2v9a30 30 0 0 1-4 15l-7 1h-16q-5 0-7-3-1-18 2-35l1-16v-2c1-14 4-16 18-16m-6 13-2 10v3l-1 7v9l-1 2v14l4 2h4l3-3 2-6v-3l2-24v-3l-1-8-5-2zm59-14h13q4 0 6 3v12l-2 21-1 19-1 3q1 7-3 12l-8 3h-3l-4-1h-3l-10-1c-5-7-2-18-1-25v-3l2-23v-3c1-11 3-17 15-17m-2 13-3 12v2l-2 18v13q4 3 10 1l3-19v-3l1-24zM342 224h13l5 2-2 14-5 29c-3 20-3 20-7 24h-22v-14l4-21 2-11 2-10v-3l1-3v-3q3-5 9-4m71-10h3l10 1q3 7 1 14l-1 2-2 8-1 6v3l-1 4c-4 26-4 26-7 30q-4 3-10 2h-2q-4 1-8-1-3-4-2-10l5-32 3-17 4-9q3-3 8-1m1231 81h10q3 0 5 2 3 4 2 10v3l-1 14-3 30v8q-1 4-4 5l-7-1-1-9v-2l2-17 1-29-3-1q-3-1-5 2-2 6-2 14l-2 28-3 14-6 1-3-2q-1-18 2-36l1-16v-2l3-15q7-2 14-1m-154-39h14c11 0 11 0 14 2q2 6-1 12-6 2-13 1v2l-4 42-3 40v2l-3 9-7 1-3-2c-2-8 1-19 1-27l4-42 1-2v-7l1-4 1-12h-11q-2-4-2-9 3-7 11-6m-52 39 3 9v10l1 23h2v-2c7-36 7-36 11-40h6q3 5 1 11l-3 10-1 3-10 39-3 11-1 2c-5 19-5 19-8 22h-8l-1-1 4-18c5-13 1-29 0-43l-2-29v-2q2-7 9-5m366 0 5 1 2 10 1 22 1 8 1-3 5-25q1-8 5-13h6q4 4 1 10l-2 10-1 2-3 10-3 12-1 3-4 19-1 2-2 9-7 20-8 1-2-2 1-4v-3l4-12q2-15 0-29l-1-7-2-21v-3l-1-5 1-10q2-2 5-2m-242-1h9c8 0 8 0 11 3q2 2 2 6v7q0 7-4 12h-6q-3-2-2-5v-8l-7-1q-5 7-4 18v3l-1 24h9v-4l3-6h7q2 3 1 8 1 7-3 14-6 3-13 2h-9q-4 0-7-4v-12l2-36 1-6v-2q0-12 10-13m-439-21 4 2q2 5 0 10l1 10 6 3-1 7-4 2-5 5v2l-1 3v6l-2 8v3l-1 18 6 4 1 4q1 5-2 6l-8 1h-4l-6-2q-3-5-2-12l1-3 2-18 1-6 1-17-4-4v-6l6-5h2v-3l1-5v-2l3-8q2-2 5-2M141 165h3l4 1h4l12 1 1 6-1 3-1 2-1 6v3q-2 6-2 13-1 4-5 6h-29q-3-8 0-17l1-11 1-4q3-9 12-9m1151 109 4 4v8l-1 2v6l2 1 4 3c1 5 1 5-1 8l-5 2-3 3v3l-1 3v6l-2 11v3l-1 15 3 2q4 1 4 6l-2 6-9 1h-3l-5-1q-3-7-1-14v-3l1-6 1-15 1-8v-3l1-3v-6l-3-1-1-8 4-4h3v-3l1-5v-2q0-5 3-9zm26 21h17q5 0 7 4v8l-1 2v3c-1 9-1 9-4 13l-6 1-3-3v-14l-5-1h-3l-4 35-1 8v3l-3 12c-7 1-7 1-10-1q-1-12 1-24v-4l3-26 1-3v-6q3-8 11-7m394-38h8l1 5-1 26-5 58v2l-1 12-1 2q0 4-3 5-6 1-7-2l2-35 4-64zm-566 38c6 0 6 0 8 2l-3 35-2 16-1 3-3 15c-7 1-7 1-10-1q-1-12 1-25l1-3 2-26 1-4v-6q1-5 6-6m14 23h19l2 8-5 6h-10l-8-2v-7zm-5-49q3 5 2 9l-3 6-7 1q-3-3-3-7 0-5 2-8z"/>
</svg>